<svg id="visual" viewBox="0 0 960 300" width="960" height="300" xmlns="http://www.w3.org/2000/svg" xmlns:xlink="http://www.w3.org/1999/xlink" version="1.1"><rect x="0" y="0" width="960" height="300" fill="#ccc"></rect><g transform="translate(468.1029706930952 127.57363008595357)"><path d="M53.4 -69C69.6 -61.7 83.3 -46.6 96 -26.7C108.7 -6.7 120.5 18.1 113 35.4C105.6 52.6 78.9 62.3 56.9 75.8C34.9 89.3 17.4 106.7 -6 114.9C-29.4 123.1 -58.8 122.2 -71.6 105.7C-84.5 89.2 -80.7 57.1 -83.3 31.3C-85.9 5.5 -94.8 -14.1 -90.3 -29.7C-85.8 -45.4 -67.9 -57.1 -50.6 -64C-33.3 -70.8 -16.7 -72.9 1 -74.3C18.6 -75.6 37.2 -76.2 53.4 -69" fill="#001220"></path></g></svg>