<svg id="visual" viewBox="0 0 960 300" width="960" height="300" xmlns="http://www.w3.org/2000/svg" xmlns:xlink="http://www.w3.org/1999/xlink" version="1.1"><rect x="0" y="0" width="960" height="300" fill="#ccc"></rect><g transform="translate(482.7629128451644 146.3983200737621)"><path d="M71.1 -95.6C90.2 -84.1 102.1 -60.6 109.1 -36.2C116 -11.7 117.9 13.6 112.7 38.8C107.5 64 95.2 89 75.2 101.7C55.3 114.4 27.6 114.7 6.5 105.8C-14.7 96.9 -29.4 78.8 -53.2 67.3C-76.9 55.9 -109.8 51.1 -118.6 35.8C-127.4 20.4 -112.2 -5.6 -97.2 -25.3C-82.1 -45 -67.2 -58.5 -51 -70.9C-34.9 -83.3 -17.4 -94.7 4.3 -100.6C26.1 -106.5 52.1 -107.1 71.1 -95.6" fill="#001220"></path></g></svg>