<svg id="visual" viewBox="0 0 960 300" width="960" height="300" xmlns="http://www.w3.org/2000/svg" xmlns:xlink="http://www.w3.org/1999/xlink" version="1.1"><rect x="0" y="0" width="960" height="300" fill="#151515"></rect><path d="M0 233L26.7 233.8C53.3 234.7 106.7 236.3 160 235C213.3 233.7 266.7 229.3 320 216.2C373.3 203 426.7 181 480 177.2C533.3 173.3 586.7 187.7 640 198.8C693.3 210 746.7 218 800 221.7C853.3 225.3 906.7 224.7 933.3 224.3L960 224L960 0L933.3 0C906.7 0 853.3 0 800 0C746.7 0 693.3 0 640 0C586.7 0 533.3 0 480 0C426.7 0 373.3 0 320 0C266.7 0 213.3 0 160 0C106.7 0 53.3 0 26.7 0L0 0Z" fill="#001220"></path><path d="M0 159L26.7 165.3C53.3 171.7 106.7 184.3 160 180.7C213.3 177 266.7 157 320 148.2C373.3 139.3 426.7 141.7 480 150.5C533.3 159.3 586.7 174.7 640 183.2C693.3 191.7 746.7 193.3 800 193.3C853.3 193.3 906.7 191.7 933.3 190.8L960 190L960 0L933.3 0C906.7 0 853.3 0 800 0C746.7 0 693.3 0 640 0C586.7 0 533.3 0 480 0C426.7 0 373.3 0 320 0C266.7 0 213.3 0 160 0C106.7 0 53.3 0 26.7 0L0 0Z" fill="#313a46"></path><path d="M0 145L26.7 144.7C53.3 144.3 106.7 143.7 160 134.5C213.3 125.3 266.7 107.7 320 109C373.3 110.3 426.7 130.7 480 133.2C533.3 135.7 586.7 120.3 640 115.7C693.3 111 746.7 117 800 119.8C853.3 122.7 906.7 122.3 933.3 122.2L960 122L960 0L933.3 0C906.7 0 853.3 0 800 0C746.7 0 693.3 0 640 0C586.7 0 533.3 0 480 0C426.7 0 373.3 0 320 0C266.7 0 213.3 0 160 0C106.7 0 53.3 0 26.7 0L0 0Z" fill="#616770"></path><path d="M0 60L26.7 65.5C53.3 71 106.7 82 160 85.2C213.3 88.3 266.7 83.7 320 78.5C373.3 73.3 426.7 67.7 480 72.5C533.3 77.3 586.7 92.7 640 96.8C693.3 101 746.7 94 800 93.2C853.3 92.3 906.7 97.7 933.3 100.3L960 103L960 0L933.3 0C906.7 0 853.3 0 800 0C746.7 0 693.3 0 640 0C586.7 0 533.3 0 480 0C426.7 0 373.3 0 320 0C266.7 0 213.3 0 160 0C106.7 0 53.3 0 26.7 0L0 0Z" fill="#95989d"></path><path d="M0 39L26.7 39.5C53.3 40 106.7 41 160 41.7C213.3 42.3 266.7 42.7 320 44.2C373.3 45.7 426.7 48.3 480 50.2C533.3 52 586.7 53 640 51.8C693.3 50.7 746.7 47.3 800 44.5C853.3 41.7 906.7 39.3 933.3 38.2L960 37L960 0L933.3 0C906.7 0 853.3 0 800 0C746.7 0 693.3 0 640 0C586.7 0 533.3 0 480 0C426.7 0 373.3 0 320 0C266.7 0 213.3 0 160 0C106.7 0 53.3 0 26.7 0L0 0Z" fill="#cccccc"></path></svg>