<svg id="visual" viewBox="0 0 960 300" width="960" height="300" xmlns="http://www.w3.org/2000/svg" xmlns:xlink="http://www.w3.org/1999/xlink" version="1.1"><rect x="0" y="0" width="960" height="300" fill="#ccc"></rect><path d="M0 57L22.8 65.5C45.7 74 91.3 91 137 98.7C182.7 106.3 228.3 104.7 274 97C319.7 89.3 365.3 75.7 411.2 72.2C457 68.7 503 75.3 548.8 82.5C594.7 89.7 640.3 97.3 686 91.2C731.7 85 777.3 65 823 57C868.7 49 914.3 53 937.2 55L960 57L960 0L937.2 0C914.3 0 868.7 0 823 0C777.3 0 731.7 0 686 0C640.3 0 594.7 0 548.8 0C503 0 457 0 411.2 0C365.3 0 319.7 0 274 0C228.3 0 182.7 0 137 0C91.3 0 45.7 0 22.8 0L0 0Z" fill="#14191a" stroke-linecap="round" stroke-linejoin="miter"></path></svg>